# xmcd
#
# Track frame offsets: 
#        150
#        17208
#        27223
#        38463
#        51163
#        58701
#        73023
#        84276
#        98447
#        109367
#        123350
#
# Disc length: 1821 seconds
#
# Revision: 4
# Processed by: cddbd v1.5.2PL0 Copyright (c) Steve Scherf et al.
# Submitted via: ExactAudioCopyFreeDBPlugin 1.0
#
DISCID=85071b0b
DTITLE=Various Artist - Bobby Womack:  Across 110th Street (40th Anni
DTITLE=versary Edition)
DYEAR=1972
DGENRE=Soul
TTITLE0=Bobby Womack - Across 110th Street
TTITLE1=J.J. Johnson and His Orchestra - Harlem Clavinette (instrumental
TTITLE1=)
TTITLE2=Bobby Womack - If You Don't Want My Love
TTITLE3=J.J. Johnson and His Orchestra - Hang On in There (instrumental)
TTITLE4=Bobby Womack - Quicksand
TTITLE5=J.J. Johnson and His Orchestra - Harlem Love Theme (instrumental
TTITLE5=)
TTITLE6=J.J. Johnson and His Orchestra - Across 110th Street (instrument
TTITLE6=al)
TTITLE7=Bobby Womack - Do It Right
TTITLE8=Bobby Womack - Hang On in There
TTITLE9=J.J. Johnson and His Orchestra - If You Don't Want My Love (inst
TTITLE9=rumental)
TTITLE10=Bobby Womack - Across 110th Street (Part 2)
EXTD=
EXTT0=
EXTT1=
EXTT2=
EXTT3=
EXTT4=
EXTT5=
EXTT6=
EXTT7=
EXTT8=
EXTT9=
EXTT10=
PLAYORDER=
